<?xml version="1.0" standalone="no"?>
<!DOCTYPE svg PUBLIC "-//W3C//DTD SVG 20010904//EN"
 "http://www.w3.org/TR/2001/REC-SVG-20010904/DTD/svg10.dtd">
<svg version="1.0" xmlns="http://www.w3.org/2000/svg"
 width="512.000000pt" height="512.000000pt" viewBox="0 0 512.000000 512.000000"
 preserveAspectRatio="xMidYMid meet">

<g transform="translate(0.000000,512.000000) scale(0.100000,-0.100000)"
fill="#000000" stroke="none">
<path d="M2395 5109 c-300 -24 -570 -88 -830 -198 -120 -51 -315 -153 -340
-177 -8 -9 -15 -13 -15 -9 0 6 -121 -73 -130 -85 -3 -4 -15 -12 -28 -19 -36
-19 -190 -151 -282 -242 -128 -126 -221 -237 -318 -377 -12 -18 -19 -38 -16
-44 4 -7 2 -8 -4 -4 -7 4 -33 -31 -68 -90 -334 -567 -437 -1230 -293 -1877 28
-128 113 -376 168 -492 27 -55 58 -124 71 -152 12 -29 26 -53 30 -53 4 0 10
28 12 62 11 127 72 274 131 313 128 84 336 -90 513 -429 77 -147 118 -261 174
-482 l50 -197 -15 -76 c-14 -74 -14 -77 6 -93 25 -21 39 -15 39 15 0 37 77
403 118 567 l40 155 -57 61 c-156 167 -260 398 -291 644 -25 205 3 444 81 686
27 86 111 287 129 309 15 19 22 75 10 75 -16 0 -61 -49 -86 -94 l-20 -38 -96
103 c-300 325 -485 567 -572 748 -36 76 -32 76 14 3 22 -35 37 -68 34 -74 -4
-6 -2 -8 3 -5 6 4 18 -4 27 -17 33 -51 231 -270 326 -361 88 -84 290 -257 290
-248 0 14 -160 195 -309 349 -220 227 -320 357 -377 490 -35 83 -29 89 74 88
126 -2 286 -47 555 -156 247 -99 349 -152 372 -190 11 -18 48 -52 82 -74 61
-42 62 -42 41 -60 -11 -10 -24 -27 -30 -38 -7 -14 1 -11 34 12 l44 30 53 -30
53 -31 -74 -31 -73 -31 50 -3 c28 -2 93 1 145 7 99 12 178 5 238 -21 17 -7 68
-42 112 -77 79 -63 81 -65 58 -77 l-23 -12 26 -10 c14 -6 63 -15 110 -21 151
-19 187 -36 301 -146 80 -77 152 -138 210 -177 21 -14 35 -27 32 -30 -3 -3 1
-5 8 -5 7 1 96 -43 197 -98 l184 -100 -43 -8 c-32 -7 -45 -5 -52 5 -7 10 -8 9
-4 -4 3 -12 0 -18 -9 -18 -8 0 -130 -38 -271 -85 -142 -46 -261 -82 -266 -79
-4 3 -8 1 -8 -3 0 -11 -95 -39 -215 -65 -66 -14 -158 -21 -345 -28 -260 -9
-470 -30 -542 -56 -22 -8 -45 -11 -52 -7 -6 3 -8 3 -4 -1 3 -4 -11 -23 -33
-43 -21 -19 -51 -60 -66 -91 -24 -49 -28 -69 -28 -142 0 -73 4 -93 28 -141 52
-106 160 -179 317 -214 168 -37 521 -28 830 21 52 8 190 18 305 21 252 6 352
-5 690 -77 371 -78 435 -90 497 -90 l59 0 -32 -57 c-18 -32 -46 -77 -62 -101
-16 -24 -27 -45 -25 -48 6 -6 128 114 154 150 l20 29 57 -264 c32 -145 63
-293 69 -329 6 -36 14 -69 18 -73 9 -10 209 202 291 308 121 158 307 465 282
465 -4 0 -3 4 3 8 18 11 83 155 120 266 37 107 75 259 100 391 l16 79 -28 21
c-56 41 -254 177 -414 284 -91 61 -178 120 -195 131 -74 51 -227 147 -392 245
-98 59 -190 115 -204 125 -14 10 -50 30 -80 46 -30 15 -72 40 -94 55 -41 28
-190 114 -305 176 -36 20 -76 43 -90 53 -14 9 -83 50 -155 90 -71 40 -146 83
-165 95 -19 12 -64 38 -100 57 -80 42 -105 56 -150 84 -36 22 -178 102 -265
149 -27 16 -86 48 -130 73 -113 64 -273 145 -320 162 -22 8 -62 17 -90 20
l-50 6 45 13 c36 11 54 11 90 2 46 -12 390 -179 560 -271 581 -317 1217 -692
1840 -1085 180 -114 585 -383 649 -432 24 -18 46 -31 49 -28 3 3 7 53 8 112 2
60 6 121 9 138 7 40 -13 319 -31 430 -80 490 -274 913 -585 1278 -91 106 -279
285 -374 355 -5 4 -39 29 -73 55 -35 26 -70 47 -78 47 -8 0 -14 4 -14 10 0 5
-43 35 -96 66 -282 166 -591 276 -919 328 -90 14 -382 38 -423 35 -9 -1 -66
-6 -127 -10z m1529 -891 c-14 -118 -67 -273 -147 -433 -22 -44 -66 -143 -98
-220 -47 -115 -61 -139 -76 -136 -60 12 -126 11 -177 -2 l-57 -15 -223 126
c-122 70 -240 136 -261 147 l-39 20 35 5 34 6 -38 13 -39 13 39 26 c123 85
474 287 628 363 204 100 308 138 378 139 l48 0 -7 -52z m62 -125 c-7 -81 -52
-318 -63 -337 -4 -6 -8 -17 -9 -26 -3 -32 -138 -464 -150 -478 -9 -12 -56 39
-65 72 -6 22 -23 52 -38 67 l-28 28 74 123 c122 201 208 388 248 538 24 90 24
90 31 90 4 0 4 -35 0 -77z m-3535 -197 c5 3 9 3 9 0 0 -2 -14 -11 -30 -20 -30
-14 -31 -9 -6 23 7 9 11 10 14 2 2 -6 8 -9 13 -5z m2419 -60 c0 -3 -4 -8 -10
-11 -5 -3 -10 -1 -10 4 0 6 5 11 10 11 6 0 10 -2 10 -4z m1097 -278 c-3 -8 -6
-5 -6 6 -1 11 2 17 5 13 3 -3 4 -12 1 -19z m-383 -182 c43 -18 66 -51 66 -94
0 -41 3 -42 -128 35 -87 51 -95 58 -72 64 42 12 99 10 134 -5z m-2934 -96 c6
-11 8 -20 6 -20 -3 0 -10 9 -16 20 -6 11 -8 20 -6 20 3 0 10 -9 16 -20z m3061
-67 c13 -16 12 -17 -3 -4 -17 13 -22 21 -14 21 2 0 10 -8 17 -17z m130 -30
c13 -16 12 -17 -3 -4 -10 7 -18 15 -18 17 0 8 8 3 21 -13z m-2850 -350 c13
-16 12 -17 -3 -4 -10 7 -18 15 -18 17 0 8 8 3 21 -13z m2606 -515 c174 -94
220 -123 283 -182 100 -94 165 -129 244 -131 53 -1 73 -8 159 -54 54 -30 101
-60 104 -67 8 -21 -15 -153 -39 -221 -39 -112 -121 -197 -218 -225 -83 -23
-179 -13 -510 57 -173 36 -360 73 -415 82 -137 21 -461 21 -620 0 -272 -37
-418 -49 -590 -49 -203 0 -312 16 -401 56 -132 60 -188 139 -188 266 0 64 4
83 29 128 32 58 63 85 124 106 66 24 292 47 556 56 308 12 386 27 745 154 239
83 417 131 502 135 18 1 104 -40 235 -111z m1443 82 c0 -5 -2 -10 -4 -10 -3 0
-8 5 -11 10 -3 6 -1 10 4 10 6 0 11 -4 11 -10z m-4285 -738 c-3 -3 -11 0 -18
7 -9 10 -8 11 6 5 10 -3 15 -9 12 -12z m262 -54 c-3 -8 -6 -5 -6 6 -1 11 2 17
5 13 3 -3 4 -12 1 -19z m-676 -51 c-10 -9 -11 -8 -5 6 3 10 9 15 12 12 3 -3 0
-11 -7 -18z m794 -166 c3 -5 1 -12 -5 -16 -5 -3 -10 1 -10 9 0 18 6 21 15 7z"/>
<path d="M3619 4087 c-74 -46 -268 -192 -466 -350 -67 -54 -83 -86 -59 -122
28 -43 167 -95 254 -95 89 0 148 48 249 202 110 168 190 358 167 396 -21 32
-56 25 -145 -31z m87 -45 c-44 -123 -195 -372 -261 -430 -19 -17 -51 -34 -71
-38 -67 -12 -238 43 -232 75 6 29 536 431 568 431 5 0 3 -17 -4 -38z"/>
<path d="M690 3740 c-15 -28 -5 -54 48 -129 126 -178 361 -414 467 -468 97
-50 170 -28 273 81 65 70 83 115 66 165 -10 29 -109 81 -439 232 -294 134
-392 162 -415 119z m142 -60 c83 -29 422 -182 578 -260 45 -22 84 -48 87 -56
12 -31 -47 -112 -121 -166 -86 -62 -147 -35 -332 144 -159 155 -333 368 -300
368 3 0 42 -13 88 -30z"/>
<path d="M2040 2939 c0 -5 5 -7 10 -4 6 3 10 8 10 11 0 2 -4 4 -10 4 -5 0 -10
-5 -10 -11z"/>
<path d="M2108 2916 c-116 -33 -189 -108 -192 -196 -3 -114 130 -189 298 -169
138 17 246 104 246 199 0 55 -45 116 -108 147 -64 31 -172 40 -244 19z m212
-63 c19 -8 45 -23 57 -34 89 -84 -38 -219 -206 -219 -76 0 -125 15 -166 52
-29 24 -35 37 -35 68 0 116 203 193 350 133z"/>
<path d="M2448 2511 c-25 -24 -72 -56 -79 -54 -3 1 -6 -11 -7 -26 0 -24 3 -27
24 -23 33 6 74 -6 74 -22 0 -18 -22 -26 -71 -26 -44 0 -47 -7 -18 -43 65 -84
258 -44 315 65 13 25 16 110 3 102 -4 -2 -13 4 -20 13 -12 14 -12 16 1 8 8 -4
12 -4 7 0 -12 14 -37 18 -127 20 -65 1 -89 -2 -102 -14z"/>
<path d="M2390 2379 c0 -5 5 -7 10 -4 6 3 10 8 10 11 0 2 -4 4 -10 4 -5 0 -10
-5 -10 -11z"/>
<path d="M2091 539 c-16 -6 -21 -14 -17 -26 6 -13 117 -370 145 -463 5 -17 16
-26 34 -28 15 -2 27 0 27 5 -1 23 -128 435 -151 490 -12 27 -17 30 -38 22z"/>
<path d="M3606 421 c-4 -6 -2 -40 5 -76 6 -36 9 -74 6 -84 -4 -15 0 -18 20
-16 40 4 43 15 30 100 -10 70 -15 80 -34 83 -11 2 -24 -1 -27 -7z"/>
<path d="M3158 393 c-10 -2 -18 -10 -18 -16 1 -19 68 -278 74 -284 3 -3 15 -3
28 0 17 5 23 13 23 36 0 16 -2 28 -5 26 -3 -2 -16 38 -30 88 -38 149 -41 157
-48 156 -4 -1 -15 -3 -24 -6z"/>
</g>
</svg>
