<?xml version="1.0" standalone="no"?>
<!DOCTYPE svg PUBLIC "-//W3C//DTD SVG 20010904//EN"
 "http://www.w3.org/TR/2001/REC-SVG-20010904/DTD/svg10.dtd">
<svg version="1.0" xmlns="http://www.w3.org/2000/svg"
 width="400.000000pt" height="400.000000pt" viewBox="0 0 400.000000 400.000000"
 preserveAspectRatio="xMidYMid meet">

<g transform="translate(0.000000,400.000000) scale(0.100000,-0.100000)"
fill="#000000" stroke="none">
<path d="M2404 3526 c-105 -28 -224 -85 -309 -149 -84 -64 -374 -361 -685
-702 -145 -159 -342 -374 -437 -476 -95 -102 -195 -213 -222 -246 -252 -314
-267 -774 -38 -1113 119 -176 299 -308 489 -360 277 -75 565 -24 778 138 84
63 357 348 735 767 50 54 204 223 344 375 339 367 373 414 427 597 35 120 45
338 20 464 -38 191 -123 348 -259 481 -115 112 -251 190 -401 228 -116 29
-318 28 -442 -4z m326 -116 c349 -56 601 -321 641 -677 17 -150 -1 -279 -57
-423 -38 -96 -64 -131 -233 -305 -58 -60 -182 -192 -275 -292 -92 -101 -171
-183 -174 -183 -3 0 -46 39 -96 87 -196 188 -660 636 -829 801 l-179 175 39
41 c21 22 74 79 118 126 44 47 134 144 200 215 258 281 341 347 497 399 131
44 231 54 348 36z m-1132 -1121 c76 -74 230 -222 342 -329 112 -107 256 -245
319 -306 l114 -111 -63 -69 c-251 -272 -493 -522 -545 -563 -87 -68 -258 -121
-390 -121 -255 0 -532 164 -636 376 -34 68 -34 70 -34 209 0 159 18 243 79
363 46 91 52 98 365 425 251 263 275 285 292 273 11 -7 81 -73 157 -147z"/>
</g>
</svg>
